<?xml version="1.0" encoding="utf-8"?>
<svg xmlns="http://www.w3.org/2000/svg" width="1024" height="500" viewBox="0 0 1024 500">
  <defs>
    <linearGradient id="bg" x1="0%" y1="0%" x2="100%" y2="100%">
      <stop offset="0%" style="stop-color:#0D1117;stop-opacity:1" />
      <stop offset="50%" style="stop-color:#1a1a2e;stop-opacity:1" />
      <stop offset="100%" style="stop-color:#0f3460;stop-opacity:1" />
    </linearGradient>
    <linearGradient id="accent" x1="0%" y1="0%" x2="100%" y2="0%">
      <stop offset="0%" style="stop-color:#FF6B35" />
      <stop offset="100%" style="stop-color:#00E5FF" />
    </linearGradient>
    <linearGradient id="fgGrad" x1="0%" y1="0%" x2="100%" y2="100%">
      <stop offset="0%" style="stop-color:#FF6B35" />
      <stop offset="100%" style="stop-color:#00E5FF" />
    </linearGradient>
  </defs>
  <rect width="1024" height="500" fill="url(#bg)" />
  <circle cx="512" cy="200" r="120" fill="url(#fgGrad)" opacity="0.08" />
  <circle cx="180" cy="350" r="80" fill="#FF6B35" opacity="0.05" />
  <circle cx="840" cy="350" r="80" fill="#00E5FF" opacity="0.05" />
  
  <text x="512" y="140" font-family="Arial,sans-serif" font-size="78" font-weight="bold" fill="#FFFFFF" text-anchor="middle" letter-spacing="6">FreeGameHub</text>
  
  <rect x="250" y="165" width="524" height="4" rx="2" fill="url(#accent)" />
  
  <text x="512" y="215" font-family="Arial,sans-serif" font-size="26" fill="#B0B0B0" text-anchor="middle" letter-spacing="8">JUEGOS GRATIS • TODOS LOS DÍAS</text>
  
  <text x="512" y="260" font-family="Arial,sans-serif" font-size="16" fill="#666" text-anchor="middle">Epic Games • Steam • GOG • Ubisoft • Y más</text>
  
  <rect x="360" y="290" width="304" height="54" rx="27" fill="url(#fgGrad)" />
  <text x="512" y="324" font-family="Arial,sans-serif" font-size="20" font-weight="bold" fill="#FFFFFF" text-anchor="middle">DESCARGAR GRATIS</text>
  
  <rect x="150" y="420" width="20" height="20" rx="5" fill="#FF6B35" />
  <rect x="185" y="420" width="20" height="20" rx="5" fill="#00E5FF" />
  <rect x="220" y="420" width="20" height="20" rx="5" fill="#FF5252" />
  <rect x="255" y="420" width="20" height="20" rx="5" fill="#00E676" />
  
  <text x="512" y="478" font-family="Arial,sans-serif" font-size="13" fill="#555" text-anchor="middle">© 2024 FreeGameHub • freegamehub.onrender.com</text>
</svg>
